<svg width="24" height="24" viewBox="0 0 24 24" fill="none" xmlns="http://www.w3.org/2000/svg">
<path opacity="0.4" d="M20.3601 12.7296C19.9901 12.7296 19.6801 12.4496 19.6401 12.0796C19.4001 9.87958 18.2201 7.89958 16.4001 6.63958C16.0701 6.40958 15.9901 5.95958 16.2201 5.62958C16.4501 5.29958 16.9001 5.21958 17.2301 5.44958C19.4001 6.95958 20.8001 9.31958 21.0901 11.9296C21.1301 12.3296 20.8401 12.6896 20.4401 12.7296C20.4101 12.7296 20.3901 12.7296 20.3601 12.7296Z" fill="#0B66C2"/>
<path opacity="0.4" d="M3.74029 12.7802C3.72029 12.7802 3.69029 12.7802 3.67029 12.7802C3.27029 12.7402 2.98029 12.3802 3.02029 11.9802C3.29029 9.3702 4.67029 7.0102 6.82029 5.4902C7.14029 5.2602 7.60029 5.3402 7.83029 5.6602C8.06029 5.9902 7.98029 6.4402 7.66029 6.6702C5.86029 7.9502 4.69029 9.9302 4.47029 12.1202C4.43029 12.5002 4.11029 12.7802 3.74029 12.7802Z" fill="#0B66C2"/>
<path opacity="0.4" d="M15.9896 21.1003C14.7596 21.6903 13.4396 21.9903 12.0596 21.9903C10.6196 21.9903 9.24961 21.6703 7.96961 21.0203C7.60961 20.8503 7.46961 20.4103 7.64961 20.0503C7.81961 19.6903 8.25961 19.5503 8.61961 19.7203C9.24961 20.0403 9.91961 20.2603 10.5996 20.3903C11.5196 20.5703 12.4596 20.5803 13.3796 20.4203C14.0596 20.3003 14.7296 20.0903 15.3496 19.7903C15.7196 19.6203 16.1596 19.7603 16.3196 20.1303C16.4996 20.4903 16.3596 20.9303 15.9896 21.1003Z" fill="#0B66C2"/>
<path d="M12.0505 2.00977C10.5005 2.00977 9.23047 3.26977 9.23047 4.82977C9.23047 6.38977 10.4905 7.64977 12.0505 7.64977C13.6105 7.64977 14.8705 6.38977 14.8705 4.82977C14.8705 3.26977 13.6105 2.00977 12.0505 2.00977Z" fill="#0B66C2"/>
<path d="M5.05047 13.8701C3.50047 13.8701 2.23047 15.1301 2.23047 16.6901C2.23047 18.2501 3.49047 19.5101 5.05047 19.5101C6.61047 19.5101 7.87047 18.2501 7.87047 16.6901C7.87047 15.1301 6.60047 13.8701 5.05047 13.8701Z" fill="#0B66C2"/>
<path d="M18.9499 13.8701C17.3999 13.8701 16.1299 15.1301 16.1299 16.6901C16.1299 18.2501 17.3899 19.5101 18.9499 19.5101C20.5099 19.5101 21.7699 18.2501 21.7699 16.6901C21.7699 15.1301 20.5099 13.8701 18.9499 13.8701Z" fill="#0B66C2"/>
</svg>
