<svg width="48" height="48" viewBox="0 0 48 48" fill="none" xmlns="http://www.w3.org/2000/svg">
<path d="M37.5 44C41.0898 44 44 41.0898 44 37.5C44 33.9102 41.0898 31 37.5 31C33.9102 31 31 33.9102 31 37.5C31 41.0898 33.9102 44 37.5 44Z" fill="#0B66C2"/>
<path d="M38 16C41.3138 16 44 13.3137 44 10C44 6.6863 41.3138 4 38 4C34.6862 4 32 6.6863 32 10C32 13.3137 34.6862 16 38 16Z" fill="#0B66C2"/>
<path d="M10 16C13.3137 16 16 13.3137 16 10C16 6.6863 13.3137 4 10 4C6.6863 4 4 6.6863 4 10C4 13.3137 6.6863 16 10 16Z" fill="#0B66C2"/>
<path opacity="0.4" d="M9.65981 16.04C11.5998 21.6 16.8398 25.34 22.7398 25.34C22.7598 25.34 22.7798 25.34 22.7998 25.34L29.8598 25.32C32.8998 25.28 35.6198 27.34 36.4398 30.3V34C36.4398 34.84 37.1198 35.52 37.9598 35.52C38.7998 35.52 39.4798 34.84 39.4798 34V11.56C39.4798 10.72 38.7998 10.04 37.9598 10.04C37.1198 10.04 36.4398 10.72 36.4398 11.56V24.8C34.6798 23.24 32.3798 22.28 29.8798 22.28C29.8598 22.28 29.8598 22.28 29.8398 22.28L22.7798 22.3C22.7598 22.3 22.7598 22.3 22.7398 22.3C18.1598 22.3 14.0598 19.4 12.5598 15.06C12.3398 14.42 11.7398 14.04 11.1198 14.04C10.9598 14.04 10.7798 14.06 10.6198 14.12C9.79981 14.36 9.37981 15.24 9.65981 16.04Z" fill="#0B66C2"/>
</svg>
