<svg width="62" height="62" viewBox="0 0 62 62" fill="none" xmlns="http://www.w3.org/2000/svg">
<path opacity="0.4" d="M31.0003 56.8581C45.2677 56.8581 56.8337 45.2921 56.8337 31.0247C56.8337 16.7574 45.2677 5.19141 31.0003 5.19141C16.733 5.19141 5.16699 16.7574 5.16699 31.0247C5.16699 45.2921 16.733 56.8581 31.0003 56.8581Z" fill="#0B66C2"/>
<path d="M31 17.9297C25.6525 17.9297 21.3125 22.2697 21.3125 27.6172C21.3125 32.8614 25.42 37.1239 30.8708 37.2789C30.9483 37.2789 31.0517 37.2789 31.1033 37.2789C31.155 37.2789 31.2325 37.2789 31.2842 37.2789C31.31 37.2789 31.3358 37.2789 31.3358 37.2789C36.5542 37.098 40.6617 32.8614 40.6875 27.6172C40.6875 22.2697 36.3475 17.9297 31 17.9297Z" fill="#0B66C2"/>
<path d="M48.5144 50.0144C43.916 54.2511 37.7677 56.8603 30.9994 56.8603C24.231 56.8603 18.0827 54.2511 13.4844 50.0144C14.1044 47.6636 15.7835 45.5194 18.2377 43.8661C25.2902 39.1644 36.7602 39.1644 43.761 43.8661C46.241 45.5194 47.8944 47.6636 48.5144 50.0144Z" fill="#0B66C2"/>
</svg>
