<svg width="48" height="48" viewBox="0 0 48 48" fill="none" xmlns="http://www.w3.org/2000/svg">
<path opacity="0.4" d="M24.9995 14.8207V44.0007H8.15945C5.83945 44.0007 3.93945 42.1407 3.93945 39.8607V10.1807C3.93945 4.9407 7.85945 2.5607 12.6395 4.9007L21.4995 9.2807C23.4195 10.2207 24.9995 12.7207 24.9995 14.8207Z" fill="#0B66C2"/>
<path d="M17.94 19.5H11C10.18 19.5 9.5 18.82 9.5 18C9.5 17.18 10.18 16.5 11 16.5H17.94C18.76 16.5 19.44 17.18 19.44 18C19.44 18.82 18.78 19.5 17.94 19.5Z" fill="#0B66C2"/>
<path d="M17.94 27.5H11C10.18 27.5 9.5 26.82 9.5 26C9.5 25.18 10.18 24.5 11 24.5H17.94C18.76 24.5 19.44 25.18 19.44 26C19.44 26.82 18.78 27.5 17.94 27.5Z" fill="#0B66C2"/>
<path opacity="0.6" d="M44 30.0998V38.9998C44 41.7598 41.76 43.9998 39 43.9998H25V20.8398L25.94 21.0398L34.02 22.8398L34.98 23.0598L39.06 23.9798C40.04 24.1798 40.94 24.5198 41.72 25.0198C41.72 25.0398 41.74 25.0398 41.74 25.0398C41.94 25.1798 42.14 25.3398 42.32 25.5198C43.24 26.4398 43.84 27.7798 43.98 29.7398C43.98 29.8598 44 29.9798 44 30.0998Z" fill="#0B66C2"/>
<path d="M25 20.8398V32.8398C25.92 34.0598 27.36 34.8398 29 34.8398C31.78 34.8398 34.02 32.5998 34.02 29.8398V22.8598L25.94 21.0598L25 20.8398Z" fill="#0B66C2"/>
<path d="M43.9795 29.7398C43.8395 27.7798 43.2395 26.4398 42.3195 25.5198C42.1395 25.3398 41.9395 25.1798 41.7395 25.0398C41.7395 25.0398 41.7195 25.0398 41.7195 25.0198C40.9395 24.5198 40.0395 24.1798 39.0595 23.9798L34.9795 23.0598L34.0195 22.8398V29.8398C34.0195 32.5798 36.2395 34.8398 39.0195 34.8398C41.6995 34.8398 43.8395 32.7398 43.9995 30.1198V30.0998C43.9995 29.9798 43.9795 29.8598 43.9795 29.7398Z" fill="#0B66C2"/>
</svg>
