<svg width="62" height="62" viewBox="0 0 62 62" fill="none" xmlns="http://www.w3.org/2000/svg">
<path d="M51.4087 34.875H10.592C6.71699 34.875 5.16699 36.5283 5.16699 40.6358V51.0725C5.16699 55.18 6.71699 56.8333 10.592 56.8333H51.4087C55.2837 56.8333 56.8337 55.18 56.8337 51.0725V40.6358C56.8337 36.5283 55.2837 34.875 51.4087 34.875Z" fill="#0B66C2"/>
<path opacity="0.4" d="M33.3253 5.16699H10.592C6.71699 5.16699 5.16699 6.82033 5.16699 10.9278V21.3645C5.16699 25.472 6.71699 27.1253 10.592 27.1253H33.3253C37.2003 27.1253 38.7503 25.472 38.7503 21.3645V10.9278C38.7503 6.82033 37.2003 5.16699 33.3253 5.16699Z" fill="#0B66C2"/>
</svg>
