<svg width="62" height="62" viewBox="0 0 62 62" fill="none" xmlns="http://www.w3.org/2000/svg">
<path opacity="0.4" d="M56.8337 20.1762V35.9087L52.6228 32.292C50.6078 30.5612 47.3528 30.5612 45.3378 32.292L34.5912 41.5145C32.5762 43.2453 29.3212 43.2453 27.3062 41.5145L26.4278 40.7912C24.5937 39.1895 21.6745 39.0345 19.6078 40.4295L6.89783 48.9545L6.61366 49.1612C5.65783 47.0945 5.16699 44.6403 5.16699 41.8245V20.1762C5.16699 10.7728 10.7728 5.16699 20.1762 5.16699H41.8245C51.2278 5.16699 56.8337 10.7728 56.8337 20.1762Z" fill="#0B66C2"/>
<path d="M23.2499 26.8152C26.6455 26.8152 29.3982 24.0625 29.3982 20.6669C29.3982 17.2713 26.6455 14.5186 23.2499 14.5186C19.8543 14.5186 17.1016 17.2713 17.1016 20.6669C17.1016 24.0625 19.8543 26.8152 23.2499 26.8152Z" fill="#0B66C2"/>
<path d="M56.8333 35.908V41.8238C56.8333 51.2271 51.2275 56.833 41.8241 56.833H20.1758C13.5883 56.833 8.83495 54.0688 6.61328 49.1605L6.89745 48.9538L19.6074 40.4288C21.6741 39.0338 24.5933 39.1888 26.4274 40.7905L27.3058 41.5138C29.3208 43.2446 32.5758 43.2446 34.5908 41.5138L45.3374 32.2913C47.3524 30.5605 50.6074 30.5605 52.6225 32.2913L56.8333 35.908Z" fill="#0B66C2"/>
</svg>
