<svg width="48" height="48" viewBox="0 0 48 48" fill="none" xmlns="http://www.w3.org/2000/svg">
<path opacity="0.4" d="M24 10.6004V42.6604C23.66 42.6604 23.3 42.6004 23.02 42.4404L22.94 42.4004C19.1 40.3004 12.4 38.1004 8.06 37.5204L7.48 37.4404C5.56 37.2004 4 35.4004 4 33.4804V9.32038C4 6.94038 5.94 5.14038 8.32 5.34038C12.52 5.68038 18.88 7.80038 22.44 10.0204L22.94 10.3204C23.24 10.5004 23.62 10.6004 24 10.6004Z" fill="#0B66C2"/>
<path d="M44 9.34006V33.4801C44 35.4001 42.44 37.2001 40.52 37.4401L39.86 37.5201C35.5 38.1001 28.78 40.3201 24.94 42.4401C24.68 42.6001 24.36 42.6601 24 42.6601V10.6001C24.38 10.6001 24.76 10.5001 25.06 10.3201L25.4 10.1001C28.96 7.86006 35.34 5.72006 39.54 5.36006H39.66C42.04 5.16006 44 6.94006 44 9.34006Z" fill="#0B66C2"/>
<path d="M15.5 18.4805H11C10.18 18.4805 9.5 17.8005 9.5 16.9805C9.5 16.1605 10.18 15.4805 11 15.4805H15.5C16.32 15.4805 17 16.1605 17 16.9805C17 17.8005 16.32 18.4805 15.5 18.4805Z" fill="#0B66C2"/>
<path d="M17 24.4805H11C10.18 24.4805 9.5 23.8005 9.5 22.9805C9.5 22.1605 10.18 21.4805 11 21.4805H17C17.82 21.4805 18.5 22.1605 18.5 22.9805C18.5 23.8005 17.82 24.4805 17 24.4805Z" fill="#0B66C2"/>
</svg>
